# xmcd
#
# Track frame offsets: 
#        150
#        23731
#        38159
#        63076
#        86037
#        105624
#        143077
#        169647
#        187058
#        207895
#        227278
#        245669
#        270794
#
# Disc length: 3878 seconds
#
# Revision: 5
# Processed by: cddbd v1.5.2PL0 Copyright (c) Steve Scherf et al.
# Submitted via: ExactAudioCopy v1.1
#
DISCID=a10f240d
DTITLE=Muse - Live at Rome Olympic Stadium
DYEAR=2013
DGENRE=Alternative Rock
TTITLE0=Supremacy
TTITLE1=Panic Station
TTITLE2=Resistance
TTITLE3=Hysteria
TTITLE4=Animals
TTITLE5=Knights of Cydonia
TTITLE6=Explorers
TTITLE7=Follow Me
TTITLE8=Madness
TTITLE9=Guiding Light
TTITLE10=Supermassive Black Hole
TTITLE11=Uprising
TTITLE12=Starlight
EXTD=YEAR: 2013
EXTT0=
EXTT1=
EXTT2=
EXTT3=
EXTT4=
EXTT5=
EXTT6=
EXTT7=
EXTT8=
EXTT9=
EXTT10=
EXTT11=
EXTT12=
PLAYORDER=
